 http://img861.imageshack.us/img861/8205/earthstoodstillposter.jpg

Country.......: USA, Canada
Genre.........: Sci-Fi, Thriller, Drama
Date release..: 10.12.2008 [World]
Director......: Scott Derrickson
Writers.......: David Scarpa, Edmund H. North
Duration......: 96 min.
More..........: http://www.imdb.com/title/tt0970416
Trailer.......: http://www.imdb.com/video/imdb/vi1665335321
Trailer.......:

Pilot :
A remake of the 1951 classic sci-fi film about an alien visitor and his giant robot counterpart who visit Earth.

Cats :
Keanu Reeves   	 ...  	Klaatu
Jennifer Connelly 	... 	Helen Benson
Kathy Bates 	... 	Regina Jackson
Jaden Smith 	... 	Jacob Benson
John Cleese 	... 	Professor Barnhardt
Jon Hamm 	... 	Michael Granier
Kyle Chandler 	... 	John Driscoll
Robert Knepper 	... 	Colonel
James Hong 	... 	Mr. Wu
John Rothman 	... 	Dr. Myron
Sunita Prasad 	... 	Rouhani
Juan Riedinger 	... 	William Kwan
Sam Gilroy 	... 	Tom
Tanya Champoux 	... 	Isabel
Rukiya Bernard 	... 	Student 

Data Technical :
!!! SAMPLE !!!
Audio.....: Lector Polish
Subtitles.: None
Format                           : AVI
Format/Info                      : Audio Video Interleave
File size                        : 1.27 GiB
Duration                         : 1h 36mn
Overall bit rate                 : 1 894 Kbps
Writing application              : VirtualDubMod 1.5.4.1 (build 2178/release)
Writing library                  : VirtualDubMod build 2178/release
Video
ID                               : 0
Format                           : MPEG-4 Visual
Format profile                   : Advanced Simple@L5
Format settings, BVOP            : Yes
Format settings, QPel            : No
Format settings, GMC             : No warppoints
Format settings, Matrix          : Custom
Codec ID                         : XVID
Codec ID/Hint                    : XviD
Duration                         : 1h 36mn
Bit rate                         : 1 501 Kbps
Width                            : 720 pixels
Height                           : 304 pixels
Display aspect ratio             : 2.35:1
Frame rate                       : 25.000 fps
Color space                      : YUV
Chroma subsampling               : 4:2:0
Bit depth                        : 8 bits
Scan type                        : Progressive
Bits/(Pixel*Frame)               : 0.274
Stream size                      : 1.01 GiB (79%)
Writing library                  : XviD 1.2.1 (UTC 2008-12-04)
Audio
ID                               : 1
Format                           : AC-3
Format/Info                      : Audio Coding 3
Mode extension                   : CM (complete main)
Codec ID                         : 2000
Duration                         : 1h 36mn
Bit rate mode                    : Constant
Bit rate                         : 384 Kbps
Channel(s)                       : 6 channels
Channel positions                : Front: L C R, Side: L R, LFE
Sampling rate                    : 48.0 KHz
Bit depth                        : 16 bits
Stream size                      : 265 MiB (20%)
Alignment                        : Split accross interleaves
Interleave, duration             : 40 ms (1.00 video frame)
Interleave, preload duration     : 500 ms

Screen : 
http://img820.imageshack.us/img820/3281/thedaytheearthstoodstily.jpg 
http://img696.imageshack.us/img696/234/thedaytheearthstoodstil.jpg 
http://img146.imageshack.us/img146/234/thedaytheearthstoodstil.jpg 
http://img580.imageshack.us/img580/234/thedaytheearthstoodstil.jpg 
http://img810.imageshack.us/img810/4700/thedaytheearthstoodstilz.jpg